<?xml version="1.0" encoding="UTF-8" standalone="no"?>
<svg xmlns="http://www.w3.org/2000/svg" width="512" height="512" viewBox="0 0 512 512" fill="none">
  <rect width="512" height="512" rx="128" fill="#2563EB"/>
  <circle cx="256" cy="256" r="200" fill="#1E40AF"/>
  <circle cx="256" cy="256" r="160" fill="#1E3A8A"/>
  <g transform="translate(125, 125)">
    <path d="M248.055 167.492C255.335 141.443 255.335 114.557 248.055 88.508C247.767 87.387 247.175 86.351 246.336 85.508C245.498 84.664 244.443 84.042 243.281 83.698C225.389 78.495 208.305 70.978 192.539 61.352C191.516 60.74 190.36 60.398 189.178 60.359C187.996 60.32 186.819 60.585 185.758 61.133C168.133 70.859 149.156 77.508 129.531 80.82C128.353 81.023 127.241 81.536 126.312 82.312C125.383 83.087 124.671 84.099 124.242 85.242C117.695 111.505 117.695 139.027 124.242 165.289C124.671 166.433 125.383 167.445 126.312 168.22C127.241 168.995 128.353 169.509 129.531 169.711C149.242 173.055 168.133 179.672 185.758 189.398C186.818 189.947 187.996 190.213 189.178 190.173C190.36 190.134 191.517 189.792 192.539 189.18C208.25 179.586 225.358 172.069 243.281 166.836C244.442 166.495 245.497 165.878 246.336 165.04C247.175 164.201 247.768 163.172 248.055 162.055V167.492Z" fill="#FFFFFF"/>
    <path d="M115.078 170.68C107.133 142.102 107.133 111.898 115.078 83.32C115.425 82.008 115.094 80.617 114.234 79.539C113.374 78.46 112.081 77.813 110.703 77.773C87.016 77.023 63.607 71.456 42.109 61.351C41.062 60.795 39.891 60.559 38.718 60.67C37.546 60.781 36.43 61.233 35.5 61.976C13.359 79.195 -1.836 102.742 -8.125 129.445C-8.484 130.742 -8.328 132.128 -7.687 133.32C-7.047 134.511 -5.965 135.422 -4.648 135.859C14.844 144.57 32.039 158.398 45.266 176.258C46.078 177.305 47.2 178.07 48.479 178.444C49.757 178.818 51.127 178.781 52.383 178.336C73.284 170.234 95.461 166.258 117.891 166.648C118.651 166.67 119.401 166.53 120.099 166.239C120.797 165.949 121.427 165.514 121.95 164.964C122.473 164.413 122.878 163.759 123.137 163.046C123.395 162.333 123.501 161.576 123.445 160.82C122.695 156.781 121.672 152.789 120.375 148.929C120.078 147.929 119.513 147.023 118.742 146.305C117.97 145.587 117.018 145.082 115.984 144.843C114.951 144.604 113.874 144.64 112.86 144.947C111.845 145.254 110.93 145.821 110.203 146.586C80.047 177.914 31.703 177.914 1.547 146.586C0.821 145.821 -0.095 145.254 -1.11 144.947C-2.125 144.64 -3.201 144.604 -4.234 144.843C-5.268 145.082 -6.22 145.587 -6.992 146.305C-7.763 147.023 -8.329 147.929 -8.626 148.929C-11.423 158.141 -12.866 167.711 -12.906 177.343C-12.908 178.113 -12.748 178.874 -12.437 179.581C-12.126 180.288 -11.67 180.925 -11.098 181.45C-10.526 181.976 -9.849 182.378 -9.11 182.629C-8.371 182.881 -7.588 182.977 -6.812 182.913C32.078 178.875 69.469 186.055 102.531 203.289C103.563 203.821 104.736 204.023 105.89 203.867C107.044 203.711 108.117 203.206 108.942 202.422C118.594 193.242 126.875 182.656 133.5 171.039C134.062 170.008 134.274 168.828 134.107 167.671C133.94 166.514 133.403 165.444 132.578 164.617C127.781 159.461 122.5 154.812 116.797 150.727C115.975 150.113 114.995 149.746 113.981 149.666C112.967 149.586 111.946 149.794 111.041 150.266C110.136 150.738 109.385 151.455 108.865 152.335C108.346 153.214 108.077 154.222 108.086 155.249C108.141 160.898 104.667 165.945 99.281 167.398C93.896 168.851 88.116 166.367 85.282 161.57C82.448 156.773 83.229 150.617 87.234 146.617C91.238 142.617 97.393 141.836 102.188 144.672C102.982 145.153 103.885 145.409 104.81 145.417C105.734 145.424 106.641 145.183 107.444 144.715C108.247 144.247 108.916 143.568 109.372 142.757C109.828 141.945 110.055 141.032 110.031 140.109C109.794 131.617 111.242 123.17 114.273 115.344C114.61 114.406 114.67 113.391 114.446 112.418C114.222 111.445 113.723 110.557 113.015 109.863C112.307 109.17 111.419 108.698 110.441 108.503C109.464 108.309 108.453 108.399 107.531 108.762C99.328 112.031 89.875 111.25 82.406 106.68C74.937 102.109 70.344 94.266 70.312 85.773C70.28 77.281 74.813 69.406 82.25 64.781C89.688 60.156 99.126 59.305 107.367 62.523C107.811 62.695 108.283 62.789 108.76 62.801C109.237 62.812 109.714 62.74 110.166 62.59C110.618 62.439 111.038 62.213 111.407 61.921C111.776 61.629 112.087 61.277 112.328 60.879C113.195 59.214 113.625 57.356 113.578 55.48C113.531 53.605 113.009 51.773 112.062 50.156C102.562 34.578 98.281 16.055 99.875 -2.461C100.004 -3.675 99.675 -4.891 98.938 -5.891C98.201 -6.891 97.105 -7.609 95.875 -7.914C70.094 -14.195 43.203 -8.07 22.75 8.101C21.742 8.918 21.035 10.04 20.723 11.294C20.411 12.549 20.508 13.874 21 15.07C32.953 42.734 35.594 74.375 28.422 104.023C28.084 105.246 28.176 106.545 28.684 107.708C29.192 108.871 30.086 109.833 31.227 110.427C50.117 119.43 67.208 131.366 81.812 145.83C82.595 146.605 83.582 147.138 84.663 147.36C85.743 147.583 86.863 147.485 87.887 147.078C88.912 146.671 89.796 145.974 90.429 145.069C91.062 144.163 91.417 143.09 91.445 141.984C91.594 135.765 95.41 130.317 101.21 128.488C107.009 126.658 113.351 128.926 116.828 134.022C120.306 139.118 119.998 145.969 116.109 150.691C114.625 152.368 112.719 153.629 110.578 154.346C109.542 154.671 108.629 155.324 107.969 156.211C107.308 157.098 106.932 158.176 106.891 159.296C106.844 160.414 106.891 161.509 106.985 162.625C107.04 163.409 107.28 164.167 107.684 164.836C108.089 165.505 108.645 166.064 109.312 166.471C110.926 167.523 112.833 168.075 114.781 168.055C114.86 168.055 114.953 168.102 115.031 168.109L115.078 170.68Z" fill="#FFFFFF"/>
    <path d="M218.359 0C179.133 0 142.758 19.242 121.062 50.875C119.984 52.397 120.062 54.519 121.266 55.953C144.633 83.453 156.844 118.687 156.844 155.25C156.844 191.812 144.633 227.047 121.266 254.547C120.062 255.98 119.984 258.102 121.062 259.625C142.758 291.258 179.133 310.5 218.359 310.5C276.117 310.5 323.359 263.258 323.359 205.5V105C323.359 47.242 276.117 0 218.359 0ZM166.859 223.5C161.555 223.5 156.797 225.606 153.438 229.364C150.078 233.122 148.535 238.088 149.238 242.976C149.941 247.864 152.813 252.106 157.02 254.553C161.227 257 166.336 257.361 170.843 255.531C182.476 251.194 193.664 245.769 204.219 239.32C208.008 237.18 210.648 233.51 211.457 229.247C212.266 224.984 211.172 220.558 208.433 217.147C205.695 213.736 201.589 211.684 197.207 211.571C192.825 211.457 188.621 213.291 185.703 216.578C182.133 220.148 176.227 220.945 171.711 218.453C167.195 215.961 165.06 210.664 166.437 205.687C167.813 200.711 172.328 197.203 177.468 197.203C182.609 197.203 187.125 200.711 188.5 205.687C189.001 207.569 190.089 209.232 191.606 210.43C193.123 211.627 194.988 212.3 196.921 212.354C198.855 212.408 200.754 211.84 202.34 210.728C203.925 209.616 205.105 208.015 205.711 206.156C209.031 195.609 213.875 185.672 220.063 176.625C223.015 172.273 223.503 166.697 221.363 161.864C219.223 157.03 214.742 153.597 209.5 152.859C204.258 152.121 198.984 154.164 195.641 158.289C191.273 163.695 186.586 168.821 181.602 173.641C178.149 177.008 176.391 181.876 176.875 186.773C177.359 191.67 180.036 196.1 184.203 198.813C188.369 201.525 193.546 202.24 198.312 200.734C203.079 199.229 206.891 195.694 208.641 191.125C209.109 189.903 209.948 188.847 211.037 188.097C212.126 187.347 213.41 186.939 214.719 186.922C216.027 186.905 217.32 187.281 218.427 188.003C219.534 188.725 220.399 189.761 220.899 190.969C223.023 196.656 224.079 202.747 224.062 208.922C224.055 215.422 223.011 221.858 220.992 227.953C220.469 229.456 219.448 230.739 218.088 231.599C216.728 232.458 215.103 232.849 213.492 232.711C211.882 232.574 210.362 231.914 209.18 230.836C207.997 229.759 207.221 228.323 206.977 226.734C206.243 222.013 202.712 218.208 198.047 217.156C193.383 216.103 188.531 218.011 185.828 222.094C183.125 226.177 183.164 231.581 185.922 235.622C188.68 239.662 193.563 241.5 198.195 240.375C204.18 238.832 210.32 238.026 216.5 238.031C223.196 238.044 229.879 238.683 236.437 239.937C239.024 240.448 241.696 239.945 243.906 238.531C246.117 237.117 247.695 234.9 248.306 232.336C248.917 229.773 248.514 227.074 247.18 224.797C245.846 222.519 243.679 220.842 241.14 220.117C232.695 217.883 224.023 216.732 215.297 216.694C211.938 216.68 208.649 217.833 206.065 219.935C203.481 222.037 201.765 225.014 201.195 228.307C200.625 231.599 201.236 234.993 202.922 237.8C204.607 240.608 207.23 242.634 210.32 243.484C225.492 247.578 241.313 249.25 257.172 248.461C259.196 248.378 261.149 247.734 262.819 246.6C264.489 245.466 265.805 243.886 266.602 242.05C267.399 240.213 267.645 238.195 267.309 236.231C266.973 234.267 266.07 232.437 264.703 230.969C254.445 219.844 246.594 207.073 243.906 193.453C243.214 190.211 241.383 187.318 238.758 185.339C236.133 183.36 232.914 182.431 229.695 182.719C226.476 183.007 223.461 184.491 221.293 186.901C219.125 189.31 217.977 192.473 218.071 195.703C218.352 204.648 216.328 213.492 212.16 221.344C211.263 223.14 209.732 224.546 207.875 225.288C206.018 226.031 203.969 226.06 202.093 225.372C200.217 224.684 198.651 223.323 197.707 221.555C196.763 219.787 196.519 217.753 197.016 215.828C198.883 208.57 202.016 201.693 206.305 195.516C208.184 192.674 208.864 189.175 208.196 185.8C207.528 182.425 205.558 179.44 202.711 177.459C199.864 175.478 196.345 174.658 192.961 175.181C189.578 175.705 186.542 177.542 184.493 180.297C183.656 181.539 182.78 182.752 181.859 183.937C177.594 188.867 176.102 195.592 177.977 201.773C179.851 207.954 184.805 212.594 191.094 214.102C194.086 214.858 197.207 214.9 200.219 214.227C203.231 213.554 206.047 212.183 208.445 210.218C210.842 208.253 212.766 205.741 214.06 202.882C215.353 200.022 215.979 196.887 215.891 193.734C215.786 190.178 214.893 186.678 213.266 183.469C212.641 182.283 212.383 180.945 212.519 179.621C212.656 178.298 213.182 177.047 214.031 176.016C214.966 174.91 216.193 174.09 217.575 173.651C218.957 173.213 220.436 173.172 221.843 173.531C224.219 174.109 228.18 175.125 233.359 176.508C236.188 177.277 239.254 176.865 241.767 175.369C244.281 173.873 246.023 171.42 246.593 168.587C247.163 165.755 246.511 162.805 244.797 160.443C243.083 158.082 240.48 156.523 237.61 156.148C231.953 155.445 226.234 155.288 220.539 155.672C218.555 155.789 216.649 156.463 215.032 157.619C213.414 158.774 212.149 160.369 211.382 162.214C210.614 164.058 210.37 166.082 210.674 168.06C210.978 170.037 211.82 171.891 213.117 173.422C214.781 175.383 216.266 177.5 217.539 179.727C218.044 180.592 218.344 181.567 218.415 182.571C218.486 183.575 218.326 184.581 217.947 185.512C217.569 186.442 216.981 187.272 216.228 187.938C215.476 188.603 214.578 189.086 213.61 189.344C212.09 189.735 210.48 189.672 209 189.164C207.519 188.655 206.238 187.72 205.328 186.484C202.578 182.891 199.172 179.812 195.273 177.375C190.93 174.597 185.555 173.959 180.698 175.64C175.841 177.321 172.042 181.141 170.391 186.008C168.741 190.875 169.394 196.252 172.188 200.602C173.07 202.023 174.219 203.266 175.562 204.25C176.906 205.235 178.417 205.941 180.022 206.328C181.627 206.716 183.295 206.778 184.93 206.511C186.564 206.244 188.128 205.654 189.539 204.773C196.132 200.763 202.226 196.079 207.719 190.805C209.125 189.56 210.898 188.808 212.765 188.66C214.632 188.512 216.5 188.976 218.071 190.008C219.641 191.041 220.828 192.584 221.458 194.393C222.089 196.201 222.129 198.173 221.577 200.008C218.195 212 219.328 224.625 224.789 235.781C226.109 238.695 228.425 241.015 231.336 242.344C234.247 243.672 237.558 243.925 240.641 243.054C243.724 242.183 246.381 240.24 248.117 237.557C249.854 234.874 250.559 231.653 250.102 228.484C249.773 226.242 249.289 224.023 248.656 221.851C247.811 219.012 245.928 216.609 243.382 215.089C240.835 213.57 237.814 213.04 234.93 213.602C232.047 214.165 229.48 215.783 227.742 218.157C226.004 220.53 225.21 223.486 225.508 226.436C225.652 227.898 226.137 229.301 226.922 230.527C227.708 231.753 228.773 232.768 230.031 233.484C232.563 234.926 235.453 235.656 238.383 235.609C240.149 235.602 241.907 235.39 243.617 234.977C245.09 234.613 246.631 234.696 248.058 235.216C249.486 235.737 250.739 236.673 251.649 237.903C252.559 239.133 253.084 240.605 253.161 242.138C253.238 243.671 252.865 245.191 252.086 246.508C250.254 249.523 247.39 251.753 244.016 252.789C240.641 253.825 237 253.601 233.781 252.156C227.094 249.25 219.968 247.466 212.696 246.867C207.743 246.446 202.757 246.919 197.957 248.266C195.437 248.992 193.312 250.613 191.976 252.836C190.64 255.06 190.18 257.723 190.691 260.29C191.203 262.858 192.649 265.129 194.742 266.65C196.835 268.17 199.429 268.835 202.039 268.523C204.852 268.18 211.937 267.797 218.359 267.797C276.117 267.797 280.656 223.5 280.656 223.5L166.859 223.5Z" fill="#FFFFFF"/>
  </g>
</svg>