<?xml version="1.0" encoding="UTF-8"?>
<svg width="200px" height="200px" viewBox="0 0 200 200" version="1.1" xmlns="http://www.w3.org/2000/svg" xmlns:xlink="http://www.w3.org/1999/xlink">
    <title>Imagem Indisponível</title>
    <defs>
        <rect id="path-1" x="0" y="0" width="200" height="200" rx="8"></rect>
    </defs>
    <g id="Image-Fallback" stroke="none" stroke-width="1" fill="none" fill-rule="evenodd">
        <g id="Background">
            <use fill="#F3F4F6" fill-rule="evenodd" xlink:href="#path-1"></use>
            <rect stroke="#E5E7EB" stroke-width="2" x="1" y="1" width="198" height="198" rx="8"></rect>
        </g>
        <g id="Icon" transform="translate(60.000000, 54.000000)" fill="#9CA3AF" fill-rule="nonzero">
            <path d="M74.5,0 C76.9853,0 79,2.01472 79,4.5 L79,4.5 L79,87.5 C79,89.9853 76.9853,92 74.5,92 L74.5,92 L4.5,92 C2.01472,92 0,89.9853 0,87.5 L0,87.5 L0,4.5 C0,2.01472 2.01472,0 4.5,0 L4.5,0 Z M74.5,4 L4.5,4 C4.22386,4 4,4.22386 4,4.5 L4,4.5 L4,87.5 C4,87.7761 4.22386,88 4.5,88 L4.5,88 L74.5,88 C74.7761,88 75,87.7761 75,87.5 L75,87.5 L75,4.5 C75,4.22386 74.7761,4 74.5,4 L74.5,4 Z M22.293,63.293 L56.293,29.293 C57.0736,28.5125 58.3421,28.4788 59.1632,29.1903 L59.293,29.293 L70.293,40.293 C71.0736,41.0736 71.1673,42.3421 70.4558,43.1632 L70.3536,43.293 L48.3536,65.293 C48.1583,65.4882 47.9134,65.6323 47.6487,65.7144 L47.4558,65.7765 L23.4558,73.7765 C22.863,73.9481 22.2222,73.8453 21.7156,73.4985 L21.5607,73.3852 L21.3852,73.2392 C20.9978,72.8518 20.806,72.3075 20.8584,71.7558 L20.8895,71.5607 L20.9524,71.3766 L28.9524,47.3766 C29.0232,47.1763 29.1246,46.9898 29.2504,46.8266 L29.3852,46.6852 L29.5607,46.5392 L22.293,39.293 C21.9023,38.9023 21.9023,38.2692 22.293,37.8787 C22.6534,37.5183 23.2206,37.4903 23.6129,37.7955 L23.7071,37.8787 L31.669,45.818 L55.879,21.607 C56.2698,21.2165 56.9023,21.2165 57.293,21.607 C57.6534,21.9675 57.6815,22.5346 57.3763,22.9271 L57.293,23.021 L33.101,47.213 L27.882,67.883 L48.552,62.664 L69.879,41.336 L60.207,31.664 L27.621,64.25 C27.2305,64.6408 26.5973,64.6408 26.207,64.25 C25.8466,63.8896 25.8184,63.3225 26.1237,62.93 L26.207,62.836 L26.7071,62.3358 L22.293,57.9217 L22.293,63.293 Z"></path>
        </g>
        <text id="Imagem-Indisponível" font-family="Inter, sans-serif" font-size="14" font-weight="500" fill="#6B7280">
            <tspan x="51" y="161">Imagem Indisponível</tspan>
        </text>
    </g>
</svg>